# xmcd CD database file
#
# Track frame offsets:
#	150
#	12121
#	29298
#	49307
#	64437
#	75920
#	94340
#	116056
#	126984
#
# Disc length: 1872 seconds
#
# Revision: 0
# Processed by: cddbd v1.5.2PL0 Copyright (c) Steve Scherf et al.
# Submitted via: CDex 1.81
#
DISCID=75074e09
DTITLE=Zuraw, Roger [CDN-07-Feels Like Blues To Me-bls) - Feels Kije Blues To Me
DYEAR=2007
DGENRE=Blues
TTITLE0=Somebody Must've Hurt You Before Blues
TTITLE1=Freight Train Through My Head Blues
TTITLE2=Just May Go Crazy Blues
TTITLE3=Stop Me Blues
TTITLE4=We're Rockin'
TTITLE5=This Old Man's Old Lady Blues
TTITLE6=I Gotta Hunch
TTITLE7=Mama And Tata Are Gone
TTITLE8=I've Come To Pray
EXTD=YEAR: 2007
EXTT0=
EXTT1=
EXTT2=
EXTT3=
EXTT4=
EXTT5=
EXTT6=
EXTT7=
EXTT8=
PLAYORDER=
